<svg width="20" height="20" viewBox="0 0 20 20" fill="none" xmlns="http://www.w3.org/2000/svg">
<path d="M16.875 1.25H3.125C2.08984 1.25 1.25 2.08984 1.25 3.125V16.875C1.25 17.9102 2.08984 18.75 3.125 18.75H16.875C17.9102 18.75 18.75 17.9102 18.75 16.875V3.125C18.75 2.08984 17.9102 1.25 16.875 1.25ZM12.082 16.2383C11.7539 16.2969 11.6328 16.0938 11.6328 15.9258C11.6328 15.7148 11.6406 14.6367 11.6406 13.7656C11.6406 13.1562 11.4375 12.7695 11.1992 12.5664C12.6445 12.4063 14.168 12.207 14.168 9.71094C14.168 9 13.9141 8.64453 13.5 8.1875C13.5664 8.01953 13.7891 7.32812 13.4336 6.42969C12.8906 6.26172 11.6484 7.12891 11.6484 7.12891C11.1328 6.98438 10.5742 6.91016 10.0234 6.91016C9.47266 6.91016 8.91406 6.98438 8.39844 7.12891C8.39844 7.12891 7.15625 6.26172 6.61328 6.42969C6.25781 7.32422 6.47656 8.01562 6.54688 8.1875C6.13281 8.64453 5.9375 9 5.9375 9.71094C5.9375 12.1953 7.39453 12.4063 8.83984 12.5664C8.65234 12.7344 8.48438 13.0234 8.42578 13.4375C8.05469 13.6055 7.10547 13.8945 6.53906 12.8945C6.18359 12.2773 5.54297 12.2266 5.54297 12.2266C4.91016 12.2188 5.5 12.625 5.5 12.625C5.92188 12.8203 6.21875 13.5703 6.21875 13.5703C6.59766 14.7305 8.41016 14.3398 8.41016 14.3398C8.41016 14.8828 8.41797 15.7656 8.41797 15.9258C8.41797 16.0938 8.30078 16.2969 7.96875 16.2383C5.39062 15.375 3.58594 12.9219 3.58594 10.0547C3.58594 6.46875 6.32812 3.74609 9.91406 3.74609C13.5 3.74609 16.4062 6.46875 16.4062 10.0547C16.4102 12.9219 14.6602 15.3789 12.082 16.2383ZM8.25 13.8516C8.17578 13.8672 8.10547 13.8359 8.09766 13.7852C8.08984 13.7266 8.14062 13.6758 8.21484 13.6602C8.28906 13.6523 8.35938 13.6836 8.36719 13.7344C8.37891 13.7852 8.32812 13.8359 8.25 13.8516ZM7.87891 13.8164C7.87891 13.8672 7.82031 13.9102 7.74219 13.9102C7.65625 13.918 7.59766 13.875 7.59766 13.8164C7.59766 13.7656 7.65625 13.7227 7.73438 13.7227C7.80859 13.7148 7.87891 13.7578 7.87891 13.8164ZM7.34375 13.7734C7.32812 13.8242 7.25 13.8477 7.18359 13.8242C7.10938 13.8086 7.05859 13.75 7.07422 13.6992C7.08984 13.6484 7.16797 13.625 7.23438 13.6406C7.3125 13.6641 7.36328 13.7227 7.34375 13.7734ZM6.86328 13.5625C6.82812 13.6055 6.75391 13.5977 6.69531 13.5391C6.63672 13.4883 6.62109 13.4141 6.66016 13.3789C6.69531 13.3359 6.76953 13.3438 6.82812 13.4023C6.87891 13.4531 6.89844 13.5312 6.86328 13.5625ZM6.50781 13.207C6.47266 13.2305 6.40625 13.207 6.36328 13.1484C6.32031 13.0898 6.32031 13.0234 6.36328 12.9961C6.40625 12.9609 6.47266 12.9883 6.50781 13.0469C6.55078 13.1055 6.55078 13.1758 6.50781 13.207ZM6.25391 12.8281C6.21875 12.8633 6.16016 12.8438 6.11719 12.8047C6.07422 12.7539 6.06641 12.6953 6.10156 12.668C6.13672 12.6328 6.19531 12.6523 6.23828 12.6914C6.28125 12.7422 6.28906 12.8008 6.25391 12.8281ZM5.99219 12.5391C5.97656 12.5742 5.92578 12.582 5.88281 12.5547C5.83203 12.5312 5.80859 12.4883 5.82422 12.4531C5.83984 12.4297 5.88281 12.418 5.93359 12.4375C5.98438 12.4648 6.00781 12.5078 5.99219 12.5391Z" fill="white"/>
</svg>
